# xmcd
#
# Track frame offsets:
#	150
#	19367
#	33606
#	47093
#	63606
#
# Disc length: 1052 seconds
#
# Revision: 1
# Processed by: cddbd v1.5PL3 Copyright (c) Steve Scherf et al.
# Submitted via: audiograbber 1.83.01
#
DISCID=44041a05
DTITLE=Clayton Bellamy - Running On Empty
DYEAR=1999
DGENRE=Country
TTITLE0=Running On Empty
TTITLE1=Fire Of Love
TTITLE2=Pipeline
TTITLE3=Sunset Boulevard
TTITLE4=Running On Empty [Radio Edit]
EXTD=
EXTT0=
EXTT1=
EXTT2=
EXTT3=
EXTT4=
PLAYORDER=
